<svg width="174" height="70" viewBox="0 0 207 36" fill="none" xmlns="http://www.w3.org/2000/svg">
<path d="M1.504 23.684C1.336 23.684 1.204 23.636 1.108 23.54C1.012 23.468 1.012 23.408 1.108 23.36C1.636 23.264 2.092 23.072 2.476 22.784C2.86 22.472 3.172 22.088 3.412 21.632C3.916 20.792 4.408 19.952 4.888 19.112C5.392 18.248 5.872 17.384 6.328 16.52C6.88 15.464 7.444 14.408 8.02 13.352C8.596 12.272 9.172 11.204 9.748 10.148C10.3 9.164 10.792 8.216 11.224 7.304C11.656 6.392 11.98 5.732 12.196 5.324C12.364 5.012 12.652 4.736 13.06 4.496C13.492 4.232 13.912 4.028 14.32 3.884C14.176 3.884 14.032 3.884 13.888 3.884C13.744 3.86 13.588 3.848 13.42 3.848C12.676 3.848 11.86 3.896 10.972 3.992C10.108 4.064 9.256 4.184 8.416 4.352C7.6 4.52 6.88 4.748 6.256 5.036C5.632 5.324 5.212 5.672 4.996 6.08C4.9 6.296 4.816 6.512 4.744 6.728C4.672 6.944 4.636 7.16 4.636 7.376C4.636 7.928 4.828 8.324 5.212 8.564C5.236 8.564 5.248 8.588 5.248 8.636C5.248 8.684 5.2 8.732 5.104 8.78C5.032 8.828 4.972 8.84 4.924 8.816C4.684 8.696 4.408 8.408 4.096 7.952C3.808 7.472 3.616 7.076 3.52 6.764C3.448 6.476 3.412 6.212 3.412 5.972C3.412 5.348 3.616 4.868 4.024 4.532C4.432 4.172 4.948 3.92 5.572 3.776C6.196 3.608 6.832 3.512 7.48 3.488C8.152 3.44 8.74 3.416 9.244 3.416C10.012 3.416 10.924 3.416 11.98 3.416C13.036 3.392 14.008 3.38 14.896 3.38C15.112 3.38 15.352 3.38 15.616 3.38C15.88 3.356 16.156 3.344 16.444 3.344C17.092 3.344 17.764 3.38 18.46 3.452C19.156 3.524 19.792 3.68 20.368 3.92C20.944 4.16 21.388 4.532 21.7 5.036C22.18 5.78 22.42 6.572 22.42 7.412C22.42 8.348 22.144 9.236 21.592 10.076C21.064 10.892 20.392 11.612 19.576 12.236C18.76 12.86 17.932 13.34 17.092 13.676C16.3 13.988 15.412 14.204 14.428 14.324C13.468 14.444 12.604 14.504 11.836 14.504C11.596 14.504 11.356 14.504 11.116 14.504C10.9 14.48 10.708 14.456 10.54 14.432C10.492 14.432 10.468 14.408 10.468 14.36C10.468 14.264 10.564 14.132 10.756 13.964C10.948 13.772 11.104 13.688 11.224 13.712C11.416 13.736 11.608 13.748 11.8 13.748C11.992 13.748 12.196 13.748 12.412 13.748C13.324 13.748 14.296 13.628 15.328 13.388C16.36 13.148 17.308 12.692 18.172 12.02C19.06 11.324 19.732 10.316 20.188 8.996C20.308 8.708 20.38 8.42 20.404 8.132C20.452 7.82 20.476 7.52 20.476 7.232C20.476 6.416 20.272 5.696 19.864 5.072C19.456 4.448 18.868 4.088 18.1 3.992C18.004 3.968 17.896 3.956 17.776 3.956C17.656 3.956 17.536 3.956 17.416 3.956C16.96 3.956 16.456 4.016 15.904 4.136C15.376 4.256 14.98 4.484 14.716 4.82C14.116 5.612 13.54 6.512 12.988 7.52C12.436 8.504 11.908 9.512 11.404 10.544C10.9 11.552 10.42 12.5 9.964 13.388C9.844 13.628 9.616 14.06 9.28 14.684C8.944 15.284 8.572 15.98 8.164 16.772C7.756 17.54 7.372 18.308 7.012 19.076C6.652 19.844 6.364 20.528 6.148 21.128C5.956 21.728 5.908 22.136 6.004 22.352C6.028 22.376 6.04 22.412 6.04 22.46C6.04 22.532 6.004 22.568 5.932 22.568C5.74 22.568 5.548 22.52 5.356 22.424C5.164 22.328 4.936 22.28 4.672 22.28C4.432 22.28 4.192 22.34 3.952 22.46C3.712 22.556 3.4 22.736 3.016 23C2.632 23.264 2.2 23.48 1.72 23.648C1.672 23.672 1.6 23.684 1.504 23.684ZM26.5966 23.108C26.3566 23.108 26.1526 23.06 25.9846 22.964C25.8166 22.868 25.7326 22.688 25.7326 22.424C25.7326 22.088 25.8166 21.704 25.9846 21.272C26.1526 20.84 26.3446 20.42 26.5606 20.012C26.7766 19.58 26.9686 19.232 27.1366 18.968C26.2966 19.856 25.4206 20.696 24.5086 21.488C24.0526 21.872 23.5486 22.232 22.9966 22.568C22.4446 22.904 21.8566 23.072 21.2326 23.072C20.9926 23.072 20.8246 23 20.7286 22.856C20.6326 22.688 20.5846 22.496 20.5846 22.28C20.5846 22.16 20.5966 22.076 20.6206 22.028C20.7406 21.092 21.0406 20.12 21.5206 19.112C22.0006 18.104 22.5886 17.156 23.2846 16.268C23.9806 15.38 24.6886 14.66 25.4086 14.108C26.2246 13.484 27.1246 13.172 28.1086 13.172H32.2486C32.3686 13.172 32.4286 13.22 32.4286 13.316C32.4286 13.508 32.3206 13.604 32.1046 13.604C31.8646 13.604 31.6246 13.76 31.3846 14.072C31.1446 14.36 30.9646 14.6 30.8446 14.792C30.6766 15.056 30.4126 15.5 30.0526 16.124C29.6926 16.748 29.3206 17.432 28.9366 18.176C28.5766 18.896 28.2646 19.568 28.0006 20.192C27.7366 20.816 27.6046 21.272 27.6046 21.56C27.6046 21.896 27.7726 22.064 28.1086 22.064C28.4686 22.064 28.8766 21.896 29.3326 21.56C29.7886 21.224 30.2446 20.816 30.7006 20.336C31.1806 19.832 31.6126 19.34 31.9966 18.86C32.4046 18.356 32.7286 17.96 32.9686 17.672C33.1126 17.816 33.1006 18.02 32.9326 18.284C32.7886 18.524 32.6566 18.716 32.5366 18.86C32.0566 19.484 31.5046 20.132 30.8806 20.804C30.2566 21.452 29.5726 22.004 28.8286 22.46C28.1086 22.892 27.3646 23.108 26.5966 23.108ZM22.7086 21.848C22.9966 21.848 23.3926 21.644 23.8966 21.236C24.4246 20.804 24.9886 20.276 25.5886 19.652C26.1886 19.004 26.7526 18.332 27.2806 17.636C27.8086 16.916 28.2406 16.268 28.5766 15.692C28.9366 15.092 29.1166 14.636 29.1166 14.324C29.1166 14.06 29.0326 13.88 28.8646 13.784C28.7206 13.688 28.5286 13.64 28.2886 13.64C27.9046 13.64 27.4846 13.784 27.0286 14.072C26.5966 14.336 26.2486 14.6 25.9846 14.864C25.6966 15.128 25.3486 15.548 24.9406 16.124C24.5566 16.676 24.1726 17.288 23.7886 17.96C23.4046 18.632 23.0806 19.28 22.8166 19.904C22.5526 20.528 22.4206 21.032 22.4206 21.416C22.4206 21.704 22.5166 21.848 22.7086 21.848ZM34.4426 23.576C34.0106 23.576 33.5546 23.516 33.0746 23.396C32.5946 23.276 32.1626 23.084 31.7786 22.82C31.4186 22.532 31.1786 22.148 31.0586 21.668C31.0346 21.596 31.0226 21.488 31.0226 21.344C31.0226 21.008 31.0946 20.636 31.2386 20.228C31.4066 19.82 31.6106 19.532 31.8506 19.364C31.9466 19.316 32.0186 19.316 32.0666 19.364C32.1386 19.412 32.1506 19.46 32.1026 19.508C32.0786 19.58 32.0426 19.676 31.9946 19.796C31.9466 19.892 31.9106 20 31.8866 20.12C31.8146 20.744 31.9466 21.296 32.2826 21.776C32.4266 21.968 32.5946 22.148 32.7866 22.316C33.0026 22.484 33.2066 22.628 33.3986 22.748C33.5666 22.844 33.7706 22.916 34.0106 22.964C34.2506 22.988 34.4906 23 34.7306 23C35.1146 23 35.4866 22.952 35.8466 22.856C36.2066 22.76 36.4706 22.604 36.6386 22.388C36.9506 22.004 37.1066 21.572 37.1066 21.092C37.1066 20.732 37.0106 20.348 36.8186 19.94C36.6266 19.532 36.3266 19.1 35.9186 18.644C35.6546 18.356 35.4026 18.044 35.1626 17.708C34.9226 17.372 34.7666 17.012 34.6946 16.628C34.6706 16.556 34.6466 16.484 34.6226 16.412C34.6226 16.34 34.6226 16.268 34.6226 16.196C34.3106 16.652 33.9866 17.084 33.6506 17.492C33.3386 17.876 33.0626 18.212 32.8226 18.5C32.7266 18.644 32.6426 18.716 32.5706 18.716C32.5226 18.716 32.4986 18.668 32.4986 18.572C32.4986 18.356 32.5946 18.128 32.7866 17.888C32.9786 17.672 33.1946 17.408 33.4346 17.096C33.6746 16.76 33.8666 16.496 34.0106 16.304C34.4186 15.704 34.7186 15.236 34.9106 14.9C35.1266 14.54 35.3546 14.216 35.5946 13.928C35.8586 13.616 36.1826 13.364 36.5666 13.172C36.9746 12.98 37.3946 12.884 37.8266 12.884C38.3306 12.884 38.7866 12.968 39.1946 13.136C39.6266 13.28 39.8546 13.664 39.8786 14.288C39.8786 14.576 39.8186 14.876 39.6986 15.188C39.6026 15.476 39.4946 15.752 39.3746 16.016C39.3026 16.16 39.1946 16.268 39.0506 16.34C38.9306 16.388 38.8706 16.364 38.8706 16.268C38.8706 16.172 38.8826 16.064 38.9066 15.944C38.9306 15.824 38.9426 15.716 38.9426 15.62C38.9426 15.212 38.8706 14.852 38.7266 14.54C38.6066 14.204 38.4266 13.964 38.1866 13.82C37.9466 13.652 37.6946 13.568 37.4306 13.568C37.0466 13.568 36.6746 13.724 36.3146 14.036C35.9546 14.324 35.7746 14.708 35.7746 15.188C35.7746 15.236 35.7746 15.296 35.7746 15.368C35.7746 15.44 35.7866 15.5 35.8106 15.548C35.9066 15.932 36.1946 16.364 36.6746 16.844C37.1546 17.324 37.5266 17.744 37.7906 18.104C38.2466 18.728 38.4746 19.364 38.4746 20.012C38.4746 20.66 38.2826 21.26 37.8986 21.812C37.5386 22.34 37.0466 22.76 36.4226 23.072C35.8226 23.408 35.1626 23.576 34.4426 23.576ZM42.0898 23.108C41.8498 23.108 41.6458 23.06 41.4778 22.964C41.3098 22.868 41.2258 22.688 41.2258 22.424C41.2258 22.088 41.3098 21.692 41.4778 21.236C41.6698 20.78 41.8738 20.324 42.0898 19.868C42.3058 19.412 42.4858 19.04 42.6298 18.752C42.7498 18.536 42.9058 18.2 43.0978 17.744C43.3138 17.264 43.5298 16.772 43.7458 16.268C43.9858 15.74 44.1778 15.296 44.3218 14.936C44.4898 14.576 44.5738 14.396 44.5738 14.396C44.3578 14.636 44.0698 14.972 43.7098 15.404C43.3738 15.836 43.0018 16.292 42.5938 16.772C42.2098 17.228 41.8498 17.66 41.5138 18.068C41.2018 18.476 40.9738 18.776 40.8298 18.968C40.7578 19.064 40.6978 19.112 40.6498 19.112C40.6018 19.112 40.5778 19.052 40.5778 18.932C40.5778 18.74 40.6378 18.56 40.7578 18.392C41.0458 18.032 41.3938 17.6 41.8018 17.096C42.2098 16.568 42.6178 16.04 43.0258 15.512C43.4578 14.984 43.8298 14.516 44.1418 14.108C43.9498 14.108 43.6978 14.12 43.3858 14.144C43.0978 14.168 42.8338 14.204 42.5938 14.252C42.3538 14.276 42.2218 14.288 42.1978 14.288C42.0778 14.288 42.0898 14.192 42.2338 14C42.3778 13.808 42.5698 13.616 42.8098 13.424C43.0498 13.232 43.2298 13.136 43.3498 13.136C43.3738 13.136 43.5658 13.148 43.9258 13.172C44.2858 13.172 44.5498 13.172 44.7178 13.172C45.1978 12.524 45.6658 11.78 46.1218 10.94C46.6018 10.1 47.0698 9.176 47.5258 8.168C47.7178 8.144 48.0418 8.012 48.4978 7.772C48.9778 7.508 49.3498 7.244 49.6138 6.98C49.7338 6.86 49.8298 6.8 49.9018 6.8C50.0458 6.8 50.0458 6.896 49.9018 7.088C49.7338 7.28 49.4458 7.688 49.0378 8.312C48.6298 8.912 48.1738 9.644 47.6698 10.508C47.1658 11.348 46.6858 12.236 46.2298 13.172H49.1458C49.4098 13.172 49.5418 13.208 49.5418 13.28C49.5418 13.376 49.3618 13.472 49.0018 13.568C48.5938 13.688 48.1618 13.76 47.7058 13.784C47.2738 13.808 46.8658 13.856 46.4818 13.928C46.1218 14 45.8578 14.156 45.6898 14.396C45.5458 14.564 45.3418 14.924 45.0778 15.476C44.8138 16.028 44.5258 16.664 44.2138 17.384C43.9258 18.08 43.6738 18.788 43.4578 19.508C43.2418 20.204 43.1098 20.792 43.0618 21.272V21.416C43.0618 21.608 43.1218 21.764 43.2418 21.884C43.3618 22.004 43.4818 22.064 43.6018 22.064C43.9138 22.064 44.3098 21.872 44.7898 21.488C45.2938 21.104 45.8098 20.648 46.3378 20.12C46.8658 19.568 47.3218 19.064 47.7058 18.608C47.8738 18.416 48.0178 18.236 48.1378 18.068C48.2818 17.9 48.3658 17.792 48.3898 17.744C48.4378 17.84 48.4618 17.912 48.4618 17.96C48.4618 18.104 48.4138 18.26 48.3178 18.428C48.2458 18.596 48.1618 18.74 48.0658 18.86C47.6098 19.46 47.0578 20.096 46.4098 20.768C45.7618 21.416 45.0658 21.968 44.3218 22.424C43.6018 22.88 42.8578 23.108 42.0898 23.108ZM48.3625 23.072C47.9785 23.072 47.6305 23 47.3185 22.856C47.0305 22.688 46.8865 22.34 46.8865 21.812C46.8865 20.972 47.1025 20.132 47.5345 19.292C47.9665 18.428 48.4105 17.672 48.8665 17.024C49.2745 16.472 49.7305 15.956 50.2345 15.476C50.7625 14.972 51.3265 14.54 51.9265 14.18C52.3105 13.94 52.8265 13.688 53.4745 13.424C54.1465 13.136 54.7105 12.992 55.1665 12.992C55.5505 12.992 55.8865 13.1 56.1745 13.316C56.4625 13.508 56.6065 13.868 56.6065 14.396C56.6065 15.212 56.3905 16.052 55.9585 16.916C55.5505 17.756 55.1185 18.5 54.6625 19.148C54.4465 19.436 54.2305 19.712 54.0145 19.976C53.7985 20.216 53.5585 20.468 53.2945 20.732C54.1825 20.732 54.9985 20.48 55.7425 19.976C56.4865 19.448 57.1345 18.812 57.6865 18.068L57.7585 17.996C57.8305 17.996 57.8665 18.068 57.8665 18.212C57.8665 18.38 57.8185 18.536 57.7225 18.68C57.2425 19.352 56.6425 19.952 55.9225 20.48C55.2025 20.984 54.3865 21.236 53.4745 21.236C53.3785 21.236 53.2825 21.236 53.1865 21.236C53.0905 21.236 52.9945 21.224 52.8985 21.2C51.5545 22.448 50.0425 23.072 48.3625 23.072ZM49.2985 22.46C49.6345 22.46 49.9945 22.34 50.3785 22.1C50.7865 21.86 51.0985 21.632 51.3145 21.416C51.7225 21.008 52.0945 20.576 52.4305 20.12C52.7665 19.64 53.0785 19.16 53.3665 18.68C53.7025 18.104 54.0385 17.42 54.3745 16.628C54.7105 15.836 54.8785 15.092 54.8785 14.396C54.8785 13.844 54.6865 13.568 54.3025 13.568C53.9905 13.568 53.6065 13.7 53.1505 13.964C52.7185 14.228 52.3945 14.468 52.1785 14.684C51.3625 15.524 50.6785 16.436 50.1265 17.42C49.8145 17.972 49.4785 18.62 49.1185 19.364C48.7585 20.108 48.5785 20.792 48.5785 21.416C48.5785 21.512 48.5785 21.608 48.5785 21.704C48.6025 21.776 48.6265 21.86 48.6505 21.956C48.7465 22.292 48.9625 22.46 49.2985 22.46ZM57.5298 23.504C57.4338 23.504 57.4338 23.408 57.5298 23.216C57.6498 23 57.7578 22.76 57.8538 22.496C57.9738 22.232 58.0938 21.944 58.2138 21.632C58.4538 21.056 58.7178 20.408 59.0058 19.688C59.2938 18.968 59.5698 18.272 59.8338 17.6C60.0978 16.904 60.3258 16.316 60.5178 15.836C60.7338 15.332 60.8778 15.008 60.9498 14.864C60.6138 15.224 60.2058 15.68 59.7258 16.232C59.2698 16.76 58.8378 17.276 58.4298 17.78C58.0218 18.284 57.7098 18.68 57.4938 18.968C57.4218 19.064 57.3618 19.112 57.3138 19.112C57.2658 19.112 57.2418 19.052 57.2418 18.932C57.2418 18.74 57.3018 18.56 57.4218 18.392C57.8778 17.816 58.3818 17.168 58.9338 16.448C59.5098 15.728 60.0258 15.068 60.4818 14.468C60.9378 13.844 61.2258 13.436 61.3458 13.244C61.6098 13.196 61.9938 13.124 62.4978 13.028C63.0258 12.932 63.3858 12.8 63.5778 12.632C63.6498 12.56 63.7218 12.524 63.7938 12.524C63.8418 12.524 63.8658 12.572 63.8658 12.668C63.8898 12.74 63.8658 12.824 63.7938 12.92C63.6498 13.064 63.4338 13.376 63.1458 13.856C62.8818 14.336 62.5818 14.888 62.2458 15.512C61.9098 16.136 61.5858 16.736 61.2738 17.312C61.5138 16.952 61.8258 16.532 62.2098 16.052C62.6178 15.548 63.0618 15.068 63.5418 14.612C64.0218 14.132 64.5018 13.736 64.9818 13.424C65.4858 13.112 65.9538 12.956 66.3858 12.956C66.6978 12.956 66.9618 13.028 67.1778 13.172C67.3938 13.292 67.5618 13.52 67.6818 13.856C67.7538 14.024 67.7898 14.216 67.7898 14.432C67.7898 14.84 67.6818 15.236 67.4658 15.62C67.2738 15.98 67.1298 16.256 67.0338 16.448C67.0098 16.52 66.9258 16.592 66.7818 16.664C66.6378 16.712 66.5778 16.688 66.6018 16.592C66.6258 16.472 66.6378 16.352 66.6378 16.232C66.6618 16.112 66.6738 15.98 66.6738 15.836C66.6738 15.428 66.5898 15.056 66.4218 14.72C66.2778 14.384 66.0018 14.216 65.5938 14.216C65.2098 14.216 64.7418 14.456 64.1898 14.936C63.6378 15.416 63.0858 15.968 62.5338 16.592C61.8378 17.408 61.2858 18.188 60.8778 18.932C60.4698 19.652 60.1338 20.36 59.8698 21.056C59.7258 21.44 59.5818 21.824 59.4378 22.208C59.2938 22.568 59.1858 22.856 59.1138 23.072C58.8018 23.096 58.4898 23.168 58.1778 23.288C57.8658 23.432 57.6498 23.504 57.5298 23.504ZM72.3405 23.684C72.2925 23.684 72.2085 23.66 72.0885 23.612C71.9685 23.588 71.9085 23.54 71.9085 23.468C71.9085 23.444 71.9205 23.42 71.9445 23.396C71.9685 23.372 71.9805 23.36 71.9805 23.36C72.1485 23.312 72.2205 23.288 72.1965 23.288C72.1965 23.312 72.2805 23.3 72.4485 23.252C72.8565 23.108 73.2045 22.904 73.4925 22.64C73.8045 22.352 74.0685 22.016 74.2845 21.632C75.4125 19.76 76.4925 17.864 77.5245 15.944C78.5565 14 79.5885 12.068 80.6205 10.148C80.9085 9.644 81.1845 9.128 81.4485 8.6C81.7125 8.072 81.9765 7.544 82.2405 7.016C82.3605 6.728 82.4805 6.44 82.6005 6.152C82.7445 5.864 82.9005 5.588 83.0685 5.324C83.2605 4.988 83.5605 4.7 83.9685 4.46C84.4005 4.196 84.8085 4.004 85.1925 3.884H84.3285C83.8485 3.884 83.1885 3.92 82.3485 3.992C81.5325 4.04 80.6685 4.136 79.7565 4.28C78.8445 4.424 78.0285 4.64 77.3085 4.928C76.6125 5.216 76.1325 5.6 75.8685 6.08C75.6285 6.512 75.5085 6.932 75.5085 7.34C75.5085 7.82 75.6165 8.144 75.8325 8.312C76.0485 8.48 76.1565 8.588 76.1565 8.636C76.1565 8.684 76.1205 8.732 76.0485 8.78C75.9765 8.828 75.9165 8.852 75.8685 8.852C75.7245 8.852 75.5445 8.708 75.3285 8.42C75.1125 8.132 74.9085 7.82 74.7165 7.484C74.5485 7.124 74.4405 6.884 74.3925 6.764C74.3205 6.5 74.2845 6.236 74.2845 5.972C74.2845 5.324 74.5005 4.832 74.9325 4.496C75.3885 4.136 75.9405 3.884 76.5885 3.74C77.2365 3.596 77.8845 3.512 78.5325 3.488C79.2045 3.44 79.7565 3.416 80.1885 3.416C81.3885 3.416 82.5885 3.392 83.7885 3.344C84.9885 3.272 86.1765 3.236 87.3525 3.236C88.4805 3.236 89.5845 3.32 90.6645 3.488C91.7685 3.632 92.7645 3.932 93.6525 4.388C94.5405 4.844 95.2485 5.492 95.7765 6.332C96.3285 7.172 96.6045 8.276 96.6045 9.644C96.6045 10.892 96.3645 12.176 95.8845 13.496C95.4285 14.792 94.8525 15.956 94.1565 16.988C91.2285 21.38 87.1245 23.576 81.8445 23.576C81.0285 23.576 80.1885 23.492 79.3245 23.324C78.4845 23.156 77.6925 22.88 76.9485 22.496C76.7805 22.4 76.6005 22.328 76.4085 22.28C76.2405 22.208 76.0605 22.172 75.8685 22.172C75.4605 22.172 75.0525 22.304 74.6445 22.568C74.2365 22.808 73.8405 23.048 73.4565 23.288C73.0725 23.552 72.7005 23.684 72.3405 23.684ZM81.4125 23.072C83.2125 23.072 84.8925 22.724 86.4525 22.028C88.0125 21.332 89.3805 20.36 90.5565 19.112C91.7325 17.84 92.6565 16.388 93.3285 14.756C93.6405 13.988 93.8925 13.184 94.0845 12.344C94.3005 11.504 94.4085 10.676 94.4085 9.86C94.4085 7.988 93.8325 6.548 92.6805 5.54C91.5525 4.508 90.0645 3.992 88.2165 3.992C87.7605 3.992 87.2805 4.04 86.7765 4.136C86.2965 4.232 85.9005 4.46 85.5885 4.82C85.2765 5.204 84.9765 5.624 84.6885 6.08C84.4245 6.536 84.1605 6.98 83.8965 7.412C83.3445 8.372 82.8165 9.368 82.3125 10.4C81.8325 11.408 81.3405 12.404 80.8365 13.388C80.0445 14.9 79.2645 16.424 78.4965 17.96C78.3285 18.296 78.1485 18.644 77.9565 19.004C77.7885 19.34 77.6205 19.676 77.4525 20.012C77.4045 20.132 77.3565 20.264 77.3085 20.408C77.2605 20.528 77.2365 20.672 77.2365 20.84C77.2365 21.152 77.3325 21.416 77.5245 21.632C77.7165 21.848 77.9205 22.052 78.1365 22.244C78.5925 22.58 79.1205 22.808 79.7205 22.928C80.3205 23.024 80.8845 23.072 81.4125 23.072ZM97.7916 23.288C96.8076 23.288 96.1236 23.096 95.7396 22.712C95.3556 22.328 95.1636 21.86 95.1636 21.308C95.1636 20.612 95.3436 19.868 95.7036 19.076C96.0876 18.284 96.4476 17.612 96.7836 17.06C97.1676 16.484 97.6836 15.884 98.3316 15.26C98.9796 14.636 99.6876 14.108 100.456 13.676C101.224 13.244 101.968 13.028 102.688 13.028C103.312 13.028 103.744 13.184 103.984 13.496C104.224 13.784 104.344 14.132 104.344 14.54C104.344 15.284 104.116 15.896 103.66 16.376C103.228 16.856 102.688 17.252 102.04 17.564C101.392 17.852 100.768 18.092 100.168 18.284C99.8076 18.38 99.3876 18.476 98.9076 18.572C98.4276 18.668 97.9716 18.716 97.5396 18.716C97.3716 19.148 97.2396 19.568 97.1436 19.976C97.0476 20.384 96.9996 20.756 96.9996 21.092C96.9996 21.5 97.0956 21.836 97.2876 22.1C97.5036 22.364 97.8516 22.496 98.3316 22.496C98.5236 22.496 98.7516 22.472 99.0156 22.424C99.2796 22.376 99.5676 22.304 99.8796 22.208C100.6 21.968 101.308 21.584 102.004 21.056C102.7 20.528 103.336 19.964 103.912 19.364C104.512 18.74 104.968 18.224 105.28 17.816C105.352 17.888 105.388 17.972 105.388 18.068C105.388 18.188 105.304 18.38 105.136 18.644C104.656 19.316 104.032 20.012 103.264 20.732C102.496 21.452 101.644 22.064 100.708 22.568C99.7716 23.048 98.7996 23.288 97.7916 23.288ZM97.8276 17.996C98.1396 18.02 98.4876 18.02 98.8716 17.996C99.2796 17.948 99.6756 17.864 100.06 17.744C101.044 17.456 101.752 17 102.184 16.376C102.64 15.728 102.868 15.152 102.868 14.648C102.868 14.36 102.808 14.12 102.688 13.928C102.568 13.736 102.376 13.64 102.112 13.64C101.416 13.64 100.792 13.904 100.24 14.432C99.6876 14.936 99.2076 15.524 98.7996 16.196C98.3916 16.868 98.0676 17.468 97.8276 17.996ZM105.28 23.072C104.896 23.072 104.548 23 104.236 22.856C103.948 22.688 103.804 22.34 103.804 21.812C103.804 20.972 104.02 20.132 104.452 19.292C104.884 18.428 105.328 17.672 105.784 17.024C106.192 16.472 106.648 15.956 107.152 15.476C107.68 14.972 108.244 14.54 108.844 14.18C109.228 13.94 109.744 13.688 110.392 13.424C111.064 13.136 111.628 12.992 112.084 12.992C112.468 12.992 112.804 13.1 113.092 13.316C113.38 13.508 113.524 13.868 113.524 14.396C113.524 15.212 113.308 16.052 112.876 16.916C112.468 17.756 112.036 18.5 111.58 19.148C111.364 19.436 111.148 19.712 110.932 19.976C110.716 20.216 110.476 20.468 110.212 20.732C111.1 20.732 111.916 20.48 112.66 19.976C113.404 19.448 114.052 18.812 114.604 18.068L114.676 17.996C114.748 17.996 114.784 18.068 114.784 18.212C114.784 18.38 114.736 18.536 114.64 18.68C114.16 19.352 113.56 19.952 112.84 20.48C112.12 20.984 111.304 21.236 110.392 21.236C110.296 21.236 110.2 21.236 110.104 21.236C110.008 21.236 109.912 21.224 109.816 21.2C108.472 22.448 106.96 23.072 105.28 23.072ZM106.216 22.46C106.552 22.46 106.912 22.34 107.296 22.1C107.704 21.86 108.016 21.632 108.232 21.416C108.64 21.008 109.012 20.576 109.348 20.12C109.684 19.64 109.996 19.16 110.284 18.68C110.62 18.104 110.956 17.42 111.292 16.628C111.628 15.836 111.796 15.092 111.796 14.396C111.796 13.844 111.604 13.568 111.22 13.568C110.908 13.568 110.524 13.7 110.068 13.964C109.636 14.228 109.312 14.468 109.096 14.684C108.28 15.524 107.596 16.436 107.044 17.42C106.732 17.972 106.396 18.62 106.036 19.364C105.676 20.108 105.496 20.792 105.496 21.416C105.496 21.512 105.496 21.608 105.496 21.704C105.52 21.776 105.544 21.86 105.568 21.956C105.664 22.292 105.88 22.46 106.216 22.46ZM116.608 23.072C115.888 23.072 115.396 22.904 115.132 22.568C114.868 22.208 114.736 21.776 114.736 21.272C114.736 20.6 114.88 19.88 115.168 19.112C115.48 18.344 115.732 17.744 115.924 17.312C115.612 17.648 115.312 17.972 115.024 18.284C114.736 18.596 114.532 18.824 114.412 18.968C114.34 19.064 114.28 19.112 114.232 19.112C114.184 19.112 114.16 19.052 114.16 18.932C114.16 18.74 114.22 18.56 114.34 18.392C114.676 17.96 115.06 17.504 115.492 17.024C115.924 16.544 116.344 16.04 116.752 15.512C117.232 14.624 117.76 13.592 118.336 12.416C118.936 11.216 119.548 9.992 120.172 8.744C120.82 7.472 121.444 6.308 122.044 5.252C122.668 4.172 123.22 3.308 123.7 2.66C124.108 2.492 124.492 2.276 124.852 2.012C125.236 1.748 125.608 1.508 125.968 1.292C126.352 1.052 126.748 0.931999 127.156 0.931999C127.42 0.931999 127.612 1.004 127.732 1.148C127.876 1.292 127.972 1.46 128.02 1.652C128.044 1.724 128.056 1.856 128.056 2.048C128.056 2.6 127.864 3.272 127.48 4.064C127.12 4.856 126.688 5.636 126.184 6.404C125.704 7.148 125.284 7.76 124.924 8.24C123.964 9.584 122.98 10.808 121.972 11.912C120.964 12.992 120.052 13.904 119.236 14.648C118.444 15.368 117.868 15.896 117.508 16.232C117.34 16.544 117.136 16.964 116.896 17.492C116.68 17.996 116.488 18.536 116.32 19.112C116.152 19.664 116.068 20.18 116.068 20.66C116.068 21.068 116.164 21.416 116.356 21.704C116.548 21.968 116.872 22.1 117.328 22.1C117.4 22.1 117.472 22.1 117.544 22.1C117.616 22.1 117.7 22.088 117.796 22.064C118.204 21.992 118.648 21.764 119.128 21.38C119.608 20.996 120.088 20.552 120.568 20.048C121.048 19.544 121.48 19.064 121.864 18.608C122.032 18.416 122.188 18.236 122.332 18.068C122.476 17.876 122.572 17.744 122.62 17.672C122.788 17.84 122.776 18.056 122.584 18.32C122.416 18.56 122.272 18.764 122.152 18.932C121.984 19.148 121.744 19.448 121.432 19.832C121.12 20.192 120.76 20.588 120.352 21.02C119.896 21.476 119.332 21.932 118.66 22.388C117.988 22.844 117.304 23.072 116.608 23.072ZM118.12 14.792C118.864 14.168 119.8 13.28 120.928 12.128C122.08 10.952 123.208 9.536 124.312 7.88C124.432 7.688 124.624 7.364 124.888 6.908C125.176 6.452 125.464 5.936 125.752 5.36C126.064 4.76 126.328 4.184 126.544 3.632C126.76 3.056 126.868 2.564 126.868 2.156C126.868 1.772 126.76 1.58 126.544 1.58C126.28 1.58 125.932 1.808 125.5 2.264C124.996 2.792 124.42 3.572 123.772 4.604C123.148 5.612 122.488 6.74 121.792 7.988C121.096 9.236 120.424 10.46 119.776 11.66C119.152 12.86 118.6 13.904 118.12 14.792ZM126.827 23.108C126.587 23.108 126.383 23.06 126.215 22.964C126.047 22.868 125.963 22.688 125.963 22.424C125.963 22.088 126.047 21.704 126.215 21.272C126.383 20.84 126.575 20.42 126.791 20.012C127.007 19.58 127.199 19.232 127.367 18.968C126.527 19.856 125.651 20.696 124.739 21.488C124.283 21.872 123.779 22.232 123.227 22.568C122.675 22.904 122.087 23.072 121.463 23.072C121.223 23.072 121.055 23 120.959 22.856C120.863 22.688 120.815 22.496 120.815 22.28C120.815 22.16 120.827 22.076 120.851 22.028C120.971 21.092 121.271 20.12 121.751 19.112C122.231 18.104 122.819 17.156 123.515 16.268C124.211 15.38 124.919 14.66 125.639 14.108C126.455 13.484 127.355 13.172 128.339 13.172H132.479C132.599 13.172 132.659 13.22 132.659 13.316C132.659 13.508 132.551 13.604 132.335 13.604C132.095 13.604 131.855 13.76 131.615 14.072C131.375 14.36 131.195 14.6 131.075 14.792C130.907 15.056 130.643 15.5 130.283 16.124C129.923 16.748 129.551 17.432 129.167 18.176C128.807 18.896 128.495 19.568 128.231 20.192C127.967 20.816 127.835 21.272 127.835 21.56C127.835 21.896 128.003 22.064 128.339 22.064C128.699 22.064 129.107 21.896 129.563 21.56C130.019 21.224 130.475 20.816 130.931 20.336C131.411 19.832 131.843 19.34 132.227 18.86C132.635 18.356 132.959 17.96 133.199 17.672C133.343 17.816 133.331 18.02 133.163 18.284C133.019 18.524 132.887 18.716 132.767 18.86C132.287 19.484 131.735 20.132 131.111 20.804C130.487 21.452 129.803 22.004 129.059 22.46C128.339 22.892 127.595 23.108 126.827 23.108ZM122.939 21.848C123.227 21.848 123.623 21.644 124.127 21.236C124.655 20.804 125.219 20.276 125.819 19.652C126.419 19.004 126.983 18.332 127.511 17.636C128.039 16.916 128.471 16.268 128.807 15.692C129.167 15.092 129.347 14.636 129.347 14.324C129.347 14.06 129.263 13.88 129.095 13.784C128.951 13.688 128.759 13.64 128.519 13.64C128.135 13.64 127.715 13.784 127.259 14.072C126.827 14.336 126.479 14.6 126.215 14.864C125.927 15.128 125.579 15.548 125.171 16.124C124.787 16.676 124.403 17.288 124.019 17.96C123.635 18.632 123.311 19.28 123.047 19.904C122.783 20.528 122.651 21.032 122.651 21.416C122.651 21.704 122.747 21.848 122.939 21.848ZM137.875 23.684C137.707 23.684 137.575 23.636 137.479 23.54C137.383 23.468 137.383 23.408 137.479 23.36C138.007 23.264 138.463 23.072 138.847 22.784C139.231 22.472 139.543 22.088 139.783 21.632C140.287 20.792 140.779 19.952 141.259 19.112C141.763 18.248 142.243 17.384 142.699 16.52C143.251 15.464 143.815 14.408 144.391 13.352C144.967 12.272 145.543 11.204 146.119 10.148C146.671 9.164 147.163 8.216 147.595 7.304C148.027 6.392 148.351 5.732 148.567 5.324C148.735 5.012 149.023 4.736 149.431 4.496C149.863 4.232 150.283 4.028 150.691 3.884C150.547 3.884 150.403 3.884 150.259 3.884C150.115 3.86 149.959 3.848 149.791 3.848C149.047 3.848 148.231 3.896 147.343 3.992C146.479 4.064 145.627 4.184 144.787 4.352C143.971 4.52 143.251 4.748 142.627 5.036C142.003 5.324 141.583 5.672 141.367 6.08C141.271 6.296 141.187 6.512 141.115 6.728C141.043 6.944 141.007 7.16 141.007 7.376C141.007 7.928 141.199 8.324 141.583 8.564C141.607 8.564 141.619 8.588 141.619 8.636C141.619 8.684 141.571 8.732 141.475 8.78C141.403 8.828 141.343 8.84 141.295 8.816C141.055 8.696 140.779 8.408 140.467 7.952C140.179 7.472 139.987 7.076 139.891 6.764C139.819 6.476 139.783 6.212 139.783 5.972C139.783 5.348 139.987 4.868 140.395 4.532C140.803 4.172 141.319 3.92 141.943 3.776C142.567 3.608 143.203 3.512 143.851 3.488C144.523 3.44 145.111 3.416 145.615 3.416C146.383 3.416 147.295 3.416 148.351 3.416C149.407 3.392 150.379 3.38 151.267 3.38C151.483 3.38 151.723 3.38 151.987 3.38C152.251 3.356 152.527 3.344 152.815 3.344C153.463 3.344 154.135 3.38 154.831 3.452C155.527 3.524 156.163 3.68 156.739 3.92C157.315 4.16 157.759 4.532 158.071 5.036C158.551 5.78 158.791 6.572 158.791 7.412C158.791 8.348 158.515 9.236 157.963 10.076C157.435 10.892 156.763 11.612 155.947 12.236C155.131 12.86 154.303 13.34 153.463 13.676C152.671 13.988 151.783 14.204 150.799 14.324C149.839 14.444 148.975 14.504 148.207 14.504C147.967 14.504 147.727 14.504 147.487 14.504C147.271 14.48 147.079 14.456 146.911 14.432C146.863 14.432 146.839 14.408 146.839 14.36C146.839 14.264 146.935 14.132 147.127 13.964C147.319 13.772 147.475 13.688 147.595 13.712C147.787 13.736 147.979 13.748 148.171 13.748C148.363 13.748 148.567 13.748 148.783 13.748C149.695 13.748 150.667 13.628 151.699 13.388C152.731 13.148 153.679 12.692 154.543 12.02C155.431 11.324 156.103 10.316 156.559 8.996C156.679 8.708 156.751 8.42 156.775 8.132C156.823 7.82 156.847 7.52 156.847 7.232C156.847 6.416 156.643 5.696 156.235 5.072C155.827 4.448 155.239 4.088 154.471 3.992C154.375 3.968 154.267 3.956 154.147 3.956C154.027 3.956 153.907 3.956 153.787 3.956C153.331 3.956 152.827 4.016 152.275 4.136C151.747 4.256 151.351 4.484 151.087 4.82C150.487 5.612 149.911 6.512 149.359 7.52C148.807 8.504 148.279 9.512 147.775 10.544C147.271 11.552 146.791 12.5 146.335 13.388C146.215 13.628 145.987 14.06 145.651 14.684C145.315 15.284 144.943 15.98 144.535 16.772C144.127 17.54 143.743 18.308 143.383 19.076C143.023 19.844 142.735 20.528 142.519 21.128C142.327 21.728 142.279 22.136 142.375 22.352C142.399 22.376 142.411 22.412 142.411 22.46C142.411 22.532 142.375 22.568 142.303 22.568C142.111 22.568 141.919 22.52 141.727 22.424C141.535 22.328 141.307 22.28 141.043 22.28C140.803 22.28 140.563 22.34 140.323 22.46C140.083 22.556 139.771 22.736 139.387 23C139.003 23.264 138.571 23.48 138.091 23.648C138.043 23.672 137.971 23.684 137.875 23.684ZM163.4 23.216C163.04 23.216 162.716 23.144 162.428 23C162.164 22.856 162.032 22.592 162.032 22.208C162.032 21.992 162.08 21.752 162.176 21.488C162.392 20.936 162.68 20.264 163.04 19.472C163.424 18.68 163.808 17.912 164.192 17.168C164.576 16.4 164.876 15.776 165.092 15.296C165.236 15.008 165.308 14.804 165.308 14.684C165.308 14.468 165.188 14.42 164.948 14.54C164.708 14.66 164.444 14.828 164.156 15.044C163.868 15.26 163.652 15.428 163.508 15.548C162.884 16.124 162.224 16.808 161.528 17.6C160.856 18.368 160.232 19.184 159.656 20.048C159.104 20.888 158.672 21.728 158.36 22.568C158.336 22.712 158.18 22.832 157.892 22.928C157.604 23.024 157.34 23.072 157.1 23.072C156.716 23.072 156.572 22.952 156.668 22.712C157.22 21.464 157.784 20.084 158.36 18.572C158.96 17.06 159.632 15.512 160.376 13.928C160.928 12.728 161.54 11.492 162.212 10.22C162.908 8.948 163.676 7.736 164.516 6.584C165.356 5.408 166.28 4.376 167.288 3.488C168.176 2.72 169.148 2.096 170.204 1.616C171.284 1.112 172.448 0.86 173.696 0.86C174.248 0.86 174.728 0.98 175.136 1.22C175.544 1.436 175.772 1.832 175.82 2.408V2.732C175.82 3.068 175.784 3.404 175.712 3.74C175.688 3.836 175.592 3.884 175.424 3.884C175.352 3.884 175.328 3.872 175.352 3.848C175.448 3.224 175.28 2.78 174.848 2.516C174.44 2.252 173.912 2.12 173.264 2.12C172.088 2.12 171.008 2.336 170.024 2.768C169.04 3.2 168.128 3.776 167.288 4.496C165.992 5.624 164.864 7.064 163.904 8.816C162.944 10.568 162.116 12.356 161.42 14.18C161.084 15.068 160.748 15.956 160.412 16.844C160.1 17.732 159.8 18.56 159.512 19.328C160.592 17.888 161.624 16.652 162.608 15.62C163.616 14.588 164.492 13.856 165.236 13.424C165.836 13.088 166.376 12.92 166.856 12.92C167.312 12.92 167.54 13.112 167.54 13.496C167.54 13.832 167.372 14.264 167.036 14.792C166.868 15.056 166.604 15.5 166.244 16.124C165.908 16.748 165.548 17.432 165.164 18.176C164.804 18.896 164.492 19.568 164.228 20.192C163.964 20.816 163.832 21.272 163.832 21.56C163.832 21.944 164 22.136 164.336 22.136C164.528 22.136 164.744 22.076 164.984 21.956C165.248 21.836 165.44 21.728 165.56 21.632C166.208 21.152 166.844 20.564 167.468 19.868C168.092 19.172 168.62 18.56 169.052 18.032C169.076 18.008 169.088 18.044 169.088 18.14C169.088 18.236 169.064 18.38 169.016 18.572C168.992 18.74 168.92 18.884 168.8 19.004C168.536 19.364 168.26 19.712 167.972 20.048C167.708 20.36 167.444 20.672 167.18 20.984C166.724 21.512 166.172 22.016 165.524 22.496C164.9 22.976 164.192 23.216 163.4 23.216ZM176.142 9.248C175.806 9.248 175.566 9.14 175.422 8.924C175.326 8.804 175.278 8.648 175.278 8.456C175.278 8.072 175.458 7.76 175.818 7.52C176.082 7.376 176.322 7.304 176.538 7.304C176.898 7.304 177.15 7.412 177.294 7.628C177.39 7.748 177.438 7.904 177.438 8.096C177.438 8.48 177.246 8.792 176.862 9.032C176.646 9.176 176.406 9.248 176.142 9.248ZM169.878 23.108C169.638 23.108 169.434 23.06 169.266 22.964C169.122 22.868 169.05 22.688 169.05 22.424C169.05 22.088 169.134 21.692 169.302 21.236C169.494 20.78 169.698 20.324 169.914 19.868C170.154 19.412 170.334 19.04 170.454 18.752C170.622 18.416 170.826 17.984 171.066 17.456C171.33 16.904 171.57 16.388 171.786 15.908C172.026 15.404 172.194 15.056 172.29 14.864C171.954 15.224 171.546 15.68 171.066 16.232C170.61 16.76 170.178 17.276 169.77 17.78C169.362 18.284 169.05 18.68 168.834 18.968C168.762 19.064 168.702 19.112 168.654 19.112C168.606 19.112 168.582 19.052 168.582 18.932C168.582 18.74 168.642 18.56 168.762 18.392C169.218 17.816 169.722 17.168 170.274 16.448C170.85 15.728 171.366 15.068 171.822 14.468C172.278 13.844 172.566 13.436 172.686 13.244C172.95 13.196 173.334 13.124 173.838 13.028C174.366 12.932 174.726 12.8 174.918 12.632C174.99 12.56 175.062 12.524 175.134 12.524C175.182 12.524 175.206 12.572 175.206 12.668C175.23 12.74 175.206 12.824 175.134 12.92C174.99 13.088 174.738 13.496 174.378 14.144C174.018 14.792 173.634 15.512 173.226 16.304C172.842 17.072 172.482 17.768 172.146 18.392C171.81 19.04 171.522 19.664 171.282 20.264C171.042 20.864 170.922 21.296 170.922 21.56C170.922 21.896 171.09 22.064 171.426 22.064C171.738 22.064 172.134 21.872 172.614 21.488C173.118 21.104 173.622 20.648 174.126 20.12C174.63 19.568 175.074 19.064 175.458 18.608C175.578 18.464 175.722 18.296 175.89 18.104C176.082 17.888 176.202 17.756 176.25 17.708C176.298 17.756 176.322 17.84 176.322 17.96C176.298 18.128 176.238 18.296 176.142 18.464C176.046 18.608 175.95 18.74 175.854 18.86C175.35 19.484 174.798 20.132 174.198 20.804C173.598 21.452 172.938 22.004 172.218 22.46C171.498 22.892 170.718 23.108 169.878 23.108ZM177.955 23.072C177.235 23.072 176.743 22.904 176.479 22.568C176.215 22.208 176.083 21.776 176.083 21.272C176.083 20.6 176.227 19.88 176.515 19.112C176.827 18.344 177.079 17.744 177.271 17.312C176.959 17.648 176.659 17.972 176.371 18.284C176.083 18.596 175.879 18.824 175.759 18.968C175.687 19.064 175.627 19.112 175.579 19.112C175.531 19.112 175.507 19.052 175.507 18.932C175.507 18.74 175.567 18.56 175.687 18.392C176.023 17.96 176.407 17.504 176.839 17.024C177.271 16.544 177.691 16.04 178.099 15.512C178.579 14.624 179.107 13.592 179.683 12.416C180.283 11.216 180.895 9.992 181.519 8.744C182.167 7.472 182.791 6.308 183.391 5.252C184.015 4.172 184.567 3.308 185.047 2.66C185.455 2.492 185.839 2.276 186.199 2.012C186.583 1.748 186.955 1.508 187.315 1.292C187.699 1.052 188.095 0.931999 188.503 0.931999C188.767 0.931999 188.959 1.004 189.079 1.148C189.223 1.292 189.319 1.46 189.367 1.652C189.391 1.724 189.403 1.856 189.403 2.048C189.403 2.6 189.211 3.272 188.827 4.064C188.467 4.856 188.035 5.636 187.531 6.404C187.051 7.148 186.631 7.76 186.271 8.24C185.311 9.584 184.327 10.808 183.319 11.912C182.311 12.992 181.399 13.904 180.583 14.648C179.791 15.368 179.215 15.896 178.855 16.232C178.687 16.544 178.483 16.964 178.243 17.492C178.027 17.996 177.835 18.536 177.667 19.112C177.499 19.664 177.415 20.18 177.415 20.66C177.415 21.068 177.511 21.416 177.703 21.704C177.895 21.968 178.219 22.1 178.675 22.1C178.747 22.1 178.819 22.1 178.891 22.1C178.963 22.1 179.047 22.088 179.143 22.064C179.551 21.992 179.995 21.764 180.475 21.38C180.955 20.996 181.435 20.552 181.915 20.048C182.395 19.544 182.827 19.064 183.211 18.608C183.379 18.416 183.535 18.236 183.679 18.068C183.823 17.876 183.919 17.744 183.967 17.672C184.135 17.84 184.123 18.056 183.931 18.32C183.763 18.56 183.619 18.764 183.499 18.932C183.331 19.148 183.091 19.448 182.779 19.832C182.467 20.192 182.107 20.588 181.699 21.02C181.243 21.476 180.679 21.932 180.007 22.388C179.335 22.844 178.651 23.072 177.955 23.072ZM179.467 14.792C180.211 14.168 181.147 13.28 182.275 12.128C183.427 10.952 184.555 9.536 185.659 7.88C185.779 7.688 185.971 7.364 186.235 6.908C186.523 6.452 186.811 5.936 187.099 5.36C187.411 4.76 187.675 4.184 187.891 3.632C188.107 3.056 188.215 2.564 188.215 2.156C188.215 1.772 188.107 1.58 187.891 1.58C187.627 1.58 187.279 1.808 186.847 2.264C186.343 2.792 185.767 3.572 185.119 4.604C184.495 5.612 183.835 6.74 183.139 7.988C182.443 9.236 181.771 10.46 181.123 11.66C180.499 12.86 179.947 13.904 179.467 14.792ZM190.767 9.248C190.431 9.248 190.191 9.14 190.047 8.924C189.951 8.804 189.903 8.648 189.903 8.456C189.903 8.072 190.083 7.76 190.443 7.52C190.707 7.376 190.947 7.304 191.163 7.304C191.523 7.304 191.775 7.412 191.919 7.628C192.015 7.748 192.063 7.904 192.063 8.096C192.063 8.48 191.871 8.792 191.487 9.032C191.271 9.176 191.031 9.248 190.767 9.248ZM184.503 23.108C184.263 23.108 184.059 23.06 183.891 22.964C183.747 22.868 183.675 22.688 183.675 22.424C183.675 22.088 183.759 21.692 183.927 21.236C184.119 20.78 184.323 20.324 184.539 19.868C184.779 19.412 184.959 19.04 185.079 18.752C185.247 18.416 185.451 17.984 185.691 17.456C185.955 16.904 186.195 16.388 186.411 15.908C186.651 15.404 186.819 15.056 186.915 14.864C186.579 15.224 186.171 15.68 185.691 16.232C185.235 16.76 184.803 17.276 184.395 17.78C183.987 18.284 183.675 18.68 183.459 18.968C183.387 19.064 183.327 19.112 183.279 19.112C183.231 19.112 183.207 19.052 183.207 18.932C183.207 18.74 183.267 18.56 183.387 18.392C183.843 17.816 184.347 17.168 184.899 16.448C185.475 15.728 185.991 15.068 186.447 14.468C186.903 13.844 187.191 13.436 187.311 13.244C187.575 13.196 187.959 13.124 188.463 13.028C188.991 12.932 189.351 12.8 189.543 12.632C189.615 12.56 189.687 12.524 189.759 12.524C189.807 12.524 189.831 12.572 189.831 12.668C189.855 12.74 189.831 12.824 189.759 12.92C189.615 13.088 189.363 13.496 189.003 14.144C188.643 14.792 188.259 15.512 187.851 16.304C187.467 17.072 187.107 17.768 186.771 18.392C186.435 19.04 186.147 19.664 185.907 20.264C185.667 20.864 185.547 21.296 185.547 21.56C185.547 21.896 185.715 22.064 186.051 22.064C186.363 22.064 186.759 21.872 187.239 21.488C187.743 21.104 188.247 20.648 188.751 20.12C189.255 19.568 189.699 19.064 190.083 18.608C190.203 18.464 190.347 18.296 190.515 18.104C190.707 17.888 190.827 17.756 190.875 17.708C190.923 17.756 190.947 17.84 190.947 17.96C190.923 18.128 190.863 18.296 190.767 18.464C190.671 18.608 190.575 18.74 190.479 18.86C189.975 19.484 189.423 20.132 188.823 20.804C188.223 21.452 187.563 22.004 186.843 22.46C186.123 22.892 185.343 23.108 184.503 23.108ZM178.792 35.6C177.88 35.6 177.004 35.384 176.164 34.952C175.3 34.544 174.664 33.908 174.256 33.044C174.112 32.732 174.016 32.396 173.968 32.036C173.92 31.7 173.896 31.364 173.896 31.028V30.632C173.896 30.44 173.92 30.26 173.968 30.092C174.016 29.948 174.136 29.876 174.328 29.876C174.4 29.876 174.436 29.9 174.436 29.948C174.436 30.092 174.424 30.236 174.4 30.38C174.352 30.524 174.328 30.68 174.328 30.848C174.328 31.952 174.688 32.792 175.408 33.368C176.104 33.944 176.98 34.232 178.036 34.232C178.468 34.232 178.912 34.184 179.368 34.088C179.824 33.992 180.256 33.86 180.664 33.692C182.176 33.044 183.496 32.132 184.624 30.956C185.752 29.78 186.736 28.448 187.576 26.96C188.416 25.472 189.16 23.948 189.808 22.388C190.504 20.684 191.164 19.004 191.788 17.348C192.436 15.668 193.156 14.024 193.948 12.416C194.692 10.928 195.484 9.812 196.324 9.068C197.164 8.324 198.004 7.952 198.844 7.952C199.06 7.952 199.264 8.012 199.456 8.132C199.672 8.252 199.768 8.444 199.744 8.708L199.672 9.716C199.672 9.788 199.624 9.824 199.528 9.824C199.528 9.824 199.516 9.824 199.492 9.824C199.492 9.824 199.492 9.812 199.492 9.788C199.492 9.5 199.384 9.308 199.168 9.212C198.976 9.092 198.784 9.032 198.592 9.032C197.776 9.032 197.044 9.32 196.396 9.896C195.772 10.448 195.22 11.168 194.74 12.056C194.26 12.944 193.852 13.88 193.516 14.864C193.18 15.824 192.904 16.712 192.688 17.528C192.856 17.384 193.156 17.084 193.588 16.628C194.044 16.172 194.572 15.68 195.172 15.152C195.772 14.624 196.384 14.168 197.008 13.784C197.632 13.4 198.208 13.208 198.736 13.208C199.048 13.208 199.228 13.352 199.276 13.64C199.348 13.904 199.36 14.156 199.312 14.396C199.192 15.284 198.892 16.244 198.412 17.276C197.932 18.308 197.308 19.292 196.54 20.228C195.796 21.14 194.956 21.884 194.02 22.46C193.108 23.036 192.148 23.324 191.14 23.324C191.02 23.324 190.852 23.312 190.636 23.288C190.444 23.288 190.324 23.264 190.276 23.216C189.772 24.728 189.124 26.276 188.332 27.86C187.54 29.444 186.592 30.872 185.488 32.144C184.36 33.44 183.028 34.412 181.492 35.06C180.676 35.42 179.776 35.6 178.792 35.6ZM191.68 22.712C192.04 22.712 192.448 22.568 192.904 22.28C193.384 21.968 193.744 21.692 193.984 21.452C194.272 21.188 194.608 20.78 194.992 20.228C195.4 19.652 195.796 19.028 196.18 18.356C196.588 17.684 196.924 17.036 197.188 16.412C197.452 15.788 197.584 15.284 197.584 14.9C197.584 14.78 197.56 14.672 197.512 14.576C197.464 14.48 197.38 14.432 197.26 14.432C197.044 14.432 196.756 14.564 196.396 14.828C196.036 15.092 195.652 15.416 195.244 15.8C194.86 16.16 194.5 16.52 194.164 16.88C193.828 17.216 193.588 17.468 193.444 17.636C193.204 17.924 192.88 18.344 192.472 18.896C192.064 19.448 191.704 20.012 191.392 20.588C191.08 21.14 190.924 21.608 190.924 21.992C190.924 22.472 191.176 22.712 191.68 22.712ZM201.54 23.576C201.108 23.576 200.652 23.516 200.172 23.396C199.692 23.276 199.26 23.084 198.876 22.82C198.516 22.532 198.276 22.148 198.156 21.668C198.132 21.596 198.12 21.488 198.12 21.344C198.12 21.008 198.192 20.636 198.336 20.228C198.504 19.82 198.708 19.532 198.948 19.364C199.044 19.316 199.116 19.316 199.164 19.364C199.236 19.412 199.248 19.46 199.2 19.508C199.176 19.58 199.14 19.676 199.092 19.796C199.044 19.892 199.008 20 198.984 20.12C198.912 20.744 199.044 21.296 199.38 21.776C199.524 21.968 199.692 22.148 199.884 22.316C200.1 22.484 200.304 22.628 200.496 22.748C200.664 22.844 200.868 22.916 201.108 22.964C201.348 22.988 201.588 23 201.828 23C202.212 23 202.584 22.952 202.944 22.856C203.304 22.76 203.568 22.604 203.736 22.388C204.048 22.004 204.204 21.572 204.204 21.092C204.204 20.732 204.108 20.348 203.916 19.94C203.724 19.532 203.424 19.1 203.016 18.644C202.752 18.356 202.5 18.044 202.26 17.708C202.02 17.372 201.864 17.012 201.792 16.628C201.768 16.556 201.744 16.484 201.72 16.412C201.72 16.34 201.72 16.268 201.72 16.196C201.408 16.652 201.084 17.084 200.748 17.492C200.436 17.876 200.16 18.212 199.92 18.5C199.824 18.644 199.74 18.716 199.668 18.716C199.62 18.716 199.596 18.668 199.596 18.572C199.596 18.356 199.692 18.128 199.884 17.888C200.076 17.672 200.292 17.408 200.532 17.096C200.772 16.76 200.964 16.496 201.108 16.304C201.516 15.704 201.816 15.236 202.008 14.9C202.224 14.54 202.452 14.216 202.692 13.928C202.956 13.616 203.28 13.364 203.664 13.172C204.072 12.98 204.492 12.884 204.924 12.884C205.428 12.884 205.884 12.968 206.292 13.136C206.724 13.28 206.952 13.664 206.976 14.288C206.976 14.576 206.916 14.876 206.796 15.188C206.7 15.476 206.592 15.752 206.472 16.016C206.4 16.16 206.292 16.268 206.148 16.34C206.028 16.388 205.968 16.364 205.968 16.268C205.968 16.172 205.98 16.064 206.004 15.944C206.028 15.824 206.04 15.716 206.04 15.62C206.04 15.212 205.968 14.852 205.824 14.54C205.704 14.204 205.524 13.964 205.284 13.82C205.044 13.652 204.792 13.568 204.528 13.568C204.144 13.568 203.772 13.724 203.412 14.036C203.052 14.324 202.872 14.708 202.872 15.188C202.872 15.236 202.872 15.296 202.872 15.368C202.872 15.44 202.884 15.5 202.908 15.548C203.004 15.932 203.292 16.364 203.772 16.844C204.252 17.324 204.624 17.744 204.888 18.104C205.344 18.728 205.572 19.364 205.572 20.012C205.572 20.66 205.38 21.26 204.996 21.812C204.636 22.34 204.144 22.76 203.52 23.072C202.92 23.408 202.26 23.576 201.54 23.576Z" fill="black"/>
</svg>
